<?xml version="1.0" encoding="utf-8"?>
<!-- Generator: Adobe Illustrator 21.0.2, SVG Export Plug-In . SVG Version: 6.00 Build 0)  -->
<svg version="1.1" id="Layer_1" xmlns="http://www.w3.org/2000/svg" xmlns:xlink="http://www.w3.org/1999/xlink" x="0px" y="0px"
	 viewBox="0 0 82.8 30.5" style="enable-background:new 0 0 82.8 30.5;" xml:space="preserve">
<style type="text/css">
	.st0{fill:#FFFFFF;}
</style>
<g>
	<path class="st0" d="M19.8,0.2c-1.4,0-2.4,0.9-2.4,2.5v18.4h-0.1L6.4,2.7c-1-1.6-1.9-2.5-3.4-2.5c-1.8,0-2.9,1.2-2.9,3.1v24.3
		c0,1.6,1,2.5,2.4,2.5c1.3,0,2.3-0.9,2.3-2.5V9.2h0.2l10.8,18.4c1,1.6,1.9,2.5,3.4,2.5c1.7,0,2.9-1.2,2.9-3.1V2.7
		C22.1,1.1,21.1,0.2,19.8,0.2z"/>
	<path class="st0" d="M35.8,8.5c-4.2,0-7.4,2.1-8.5,5.8c-0.4,1.3-0.7,3-0.7,5.2c0,2.2,0.3,3.8,0.7,5.1c1.2,3.6,4.3,5.8,8.7,5.8
		c3.4,0,5.7-1,7.5-2.5c0.6-0.5,1-1.1,1-1.9c0-1.2-0.8-2-2-2c-0.6,0-1.2,0.3-1.8,0.7c-1.3,0.9-2.5,1.4-4.3,1.4c-2.4,0-4-1.1-4.7-3.2
		c-0.2-0.5-0.3-1-0.3-1.6c0-0.2,0.1-0.3,0.3-0.3h11.6c1.1,0,1.7-0.7,1.7-1.7c0-2-0.3-3.6-0.7-5C43.2,10.7,40.1,8.5,35.8,8.5z
		 M39.9,17.3h-8.2c-0.2,0-0.3-0.1-0.3-0.3c0-0.7,0.1-1.3,0.3-1.8c0.6-1.7,2.1-2.7,4.1-2.7c1.9,0,3.5,1,4.1,2.7
		c0.2,0.5,0.3,1,0.3,1.8C40.2,17.3,40.1,17.3,39.9,17.3z"/>
	<path class="st0" d="M59.4,17.2L57.1,17c-2.6-0.3-3.4-1-3.4-2.2c0-1.2,1-2.2,3.2-2.2c1.6,0,3.2,0.5,4.5,1.1c0.7,0.3,1,0.5,1.5,0.5
		c1.2,0,2-0.9,2-2.1c0-0.9-0.5-1.5-1.5-2c-1.7-0.9-3.9-1.6-6.3-1.6c-5.2,0-8.1,2.6-8.1,6.6c0,3.6,2.1,5.7,6.4,6.1l2.3,0.2
		c2.7,0.3,3.5,1,3.5,2.3c0,1.6-1.5,2.5-3.9,2.5c-2.2,0-3.7-0.7-5.3-1.7c-0.5-0.3-1-0.5-1.5-0.5c-1.3,0-2.2,1-2.2,2.2
		c0,0.8,0.3,1.4,1.2,1.9c1.7,1.2,4.4,2.1,7.6,2.1c5.7,0,8.8-2.9,8.8-7C65.8,19.9,63.8,17.6,59.4,17.2z"/>
	<path class="st0" d="M80.5,25.8c-0.2,0-2.4,0-2.6-0.1c-1.4-0.2-1.8-0.8-1.8-2.3V13V8.7V4.9c0-1.6-1-2.6-2.4-2.6
		c-1.4,0-2.5,1-2.5,2.6v3.8C71.3,8.9,71.1,9,71,9h-0.6c-1.2,0-2,0.8-2,1.9c0,1.1,0.8,1.9,2,1.9H71c0.2,0,0.3,0.1,0.3,0.3v10.5
		c0,4.5,1.7,6.6,6.3,6.6H80c1.8,0,2.6-1,2.6-2.2C82.7,26.9,82,25.9,80.5,25.8z"/>
	<path class="st0" d="M80.8,9L80.8,9l-3.3,0v3.8h3.3v0c1,0,1.9-0.9,1.9-1.9C82.6,9.8,81.8,9,80.8,9z"/>
</g>
</svg>
