<?xml version="1.0" encoding="utf-8"?>
<!-- Generator: Adobe Illustrator 21.0.2, SVG Export Plug-In . SVG Version: 6.00 Build 0)  -->
<svg version="1.1" id="Layer_1" xmlns="http://www.w3.org/2000/svg" xmlns:xlink="http://www.w3.org/1999/xlink" x="0px" y="0px"
	 viewBox="0 0 174 64" style="enable-background:new 0 0 174 64;" xml:space="preserve">
<style type="text/css">
	.st0{fill:#414141;}
</style>
<g>
	<path class="st0" d="M41.6,0.5c-2.9,0-5,1.9-5,5.3v38.4h-0.3L13.7,5.8c-2-3.4-4-5.3-7.1-5.3C2.9,0.5,0.6,3,0.6,7v50.8
		c0,3.4,2.1,5.3,5,5.3c2.8,0,4.9-1.9,4.9-5.3V19.4h0.4l22.6,38.4c2,3.4,4,5.3,7.2,5.3c3.6,0,6-2.4,6-6.4V5.8
		C46.5,2.5,44.5,0.5,41.6,0.5z"/>
	<path class="st0" d="M75.1,18c-8.7,0-15.4,4.4-17.9,12.1c-0.9,2.8-1.5,6.3-1.5,10.8c0,4.5,0.6,7.9,1.5,10.7
		c2.5,7.6,9,12.1,18.3,12.1c7.1,0,11.9-2.1,15.8-5.3c1.4-1.1,2.1-2.3,2.1-4c0-2.4-1.6-4.3-4.3-4.3c-1.4,0-2.5,0.6-3.7,1.5
		c-2.8,1.9-5.3,3-9,3c-5,0-8.4-2.4-9.9-6.6c-0.4-1-0.6-2.1-0.6-3.4c0-0.4,0.2-0.5,0.5-0.5H91c2.3,0,3.5-1.5,3.5-3.5
		c0-4.2-0.5-7.6-1.4-10.5C90.6,22.6,84.1,18,75.1,18z M83.7,36.4H66.6c-0.4,0-0.5-0.2-0.5-0.5c0-1.5,0.2-2.6,0.5-3.7
		c1.2-3.5,4.4-5.6,8.6-5.6c4.1,0,7.3,2.1,8.5,5.6c0.4,1.1,0.5,2.2,0.5,3.7C84.3,36.3,84.1,36.4,83.7,36.4z"/>
	<path class="st0" d="M124.5,36.1l-4.7-0.5c-5.5-0.5-7.2-2.1-7.2-4.6c0-2.5,2.1-4.5,6.6-4.5c3.3,0,6.6,1,9.4,2.4
		c1.4,0.7,2.2,1,3.2,1c2.5,0,4.3-1.9,4.3-4.4c0-1.8-1.1-3.1-3.1-4.2c-3.5-1.9-8.3-3.3-13.2-3.3c-11,0-17,5.4-17,13.8
		c0,7.4,4.4,11.9,13.4,12.9l4.7,0.5c5.7,0.5,7.2,2.1,7.2,4.8c0,3.3-3.1,5.2-8.1,5.2c-4.5,0-7.8-1.5-11.2-3.5c-1.1-0.6-2.2-1-3.2-1
		c-2.7,0-4.6,2.2-4.6,4.6c0,1.7,0.7,3,2.5,4.1c3.6,2.4,9.2,4.4,15.9,4.4c11.9,0,18.4-6,18.4-14.7C138,41.7,133.8,37,124.5,36.1z"/>
	<path class="st0" d="M168.6,54.1c-0.4,0-5.1-0.1-5.4-0.1c-2.9-0.5-3.7-1.7-3.7-4.9V27.4v-9v-8c0-3.4-2.1-5.3-5-5.3
		c-3,0-5.2,2-5.2,5.3v8c0,0.4-0.3,0.5-0.6,0.5h-1.3c-2.5,0-4.2,1.6-4.2,4c0,2.4,1.6,3.9,4.2,3.9h1.3c0.4,0,0.6,0.2,0.6,0.5v22
		c0,9.5,3.6,13.8,13.1,13.8h5.2c3.7,0,5.5-2,5.5-4.5C173.2,56.4,171.8,54.4,168.6,54.1z"/>
	<path class="st0" d="M169.3,18.9L169.3,18.9l-6.8,0v8h6.8v0c2.2,0,4-1.8,4-4C173.2,20.7,171.4,18.9,169.3,18.9z"/>
</g>
</svg>
